<svg data-v-0dd9719b="" version="1.0" xmlns="http://www.w3.org/2000/svg" xmlns:xlink="http://www.w3.org/1999/xlink" width="100%" height="100%" viewBox="0 0 340.000000 250.000000" preserveAspectRatio="xMidYMid meet" color-interpolation-filters="sRGB" style="margin: auto;"> <rect data-v-0dd9719b="" x="0" y="0" width="100%" height="100%" fill="#ffffff" fill-opacity="1" class="background"></rect> <rect data-v-0dd9719b="" x="0" y="0" width="100%" height="100%" fill="url(#watermark)" fill-opacity="1" class="watermarklayer"></rect> <g data-v-0dd9719b="" fill="#0a0619" class="icon-text-wrapper icon-svg-group iconsvg" transform="translate(42.355003356933594,97.5)"><g fill="#FFFFFF" class="iconsvg-imagesvg icon_container" transform="translate(0,0)" mask="url(#be56f4f6-5a42-4c70-a351-55e8e86dc02d)"><rect fill="#0a0619" fill-opacity="0" stroke-width="2" x="0" y="0" width="55" height="55" class="image-rect"></rect> <svg viewBox="0 0 60 60" x="0" y="0" width="55" height="55" class="image-svg-svg bn" style="overflow: visible;"><g hollow-target="iconBnFill" mask="url(#5b317657-a444-4794-bd0c-ab3d6cfed2cf)"><g><svg fill="#000000" xmlns="http://www.w3.org/2000/svg" xmlns:xlink="http://www.w3.org/1999/xlink" xmlns:sketch="http://www.bohemiancoding.com/sketch/ns" viewBox="0 0 60 60" version="1.1" x="0" y="0" style="overflow: visible;" width="60" height="60" filtersec="colorsf8476478" filter="url(#aVSrXQy3Z3S9pF1xo-wOq)"><g transform="scale(1, 1) skewX(0)"><title>96 - Rounded (Solid)</title><desc>Created with Sketch.</desc><g fill-rule="evenodd"><g fill="#000000"><path d="M49.001,0 L10.999,0 C4.934,0 0,4.934 0,10.999 L0,49.001 C0,55.066 4.934,60 10.999,60 L49.001,60 C55.065,60 60,55.066 60,49.001 L60,10.999 C60,4.934 55.065,0 49.001,0"></path></g></g></g><defs><filter id="aVSrXQy3Z3S9pF1xo-wOq"><feColorMatrix type="matrix" values="0 0 0 0 0.99609375  0 0 0 0 0.99609375  0 0 0 0 0.99609375  0 0 0 1 0"></feColorMatrix></filter></defs></svg></g> <g filter="url(#colors9792483039)"><svg xmlns="http://www.w3.org/2000/svg" viewBox="0 0 280.07 200" width="40" height="40" x="10" y="10" class="image-svg-icon"><g><path d="M140.05 0a100 100 0 0 1 93.32 64 70 70 0 0 1-23.32 136h-140A70 70 0 0 1 46.73 64a100 100 0 0 1 93.32-64zm0 20a80.07 80.07 0 0 0-77.64 60.58A50 50 0 0 0 70.05 180h140a50 50 0 0 0 7.64-99.4A80 80 0 0 0 140.05 20z"></path></g></svg></g></g><mask id="5b317657-a444-4794-bd0c-ab3d6cfed2cf"><g fill="white"><svg xmlns="http://www.w3.org/2000/svg" xmlns:xlink="http://www.w3.org/1999/xlink" xmlns:sketch="http://www.bohemiancoding.com/sketch/ns" viewBox="0 0 60 60" version="1.1" x="0" y="0" style="overflow: visible;" width="60" height="60" filtersec="colorsf8476478"><g transform="scale(1, 1) skewX(0)"><title>96 - Rounded (Solid)</title><desc>Created with Sketch.</desc><g fill-rule="evenodd"><g><path d="M49.001,0 L10.999,0 C4.934,0 0,4.934 0,10.999 L0,49.001 C0,55.066 4.934,60 10.999,60 L49.001,60 C55.065,60 60,55.066 60,49.001 L60,10.999 C60,4.934 55.065,0 49.001,0"></path></g></g></g><defs></defs></svg></g> <g fill="black"><svg xmlns="http://www.w3.org/2000/svg" viewBox="0 0 280.07 200" width="40" height="40" x="10" y="10" class="image-svg-icon"><g><path d="M140.05 0a100 100 0 0 1 93.32 64 70 70 0 0 1-23.32 136h-140A70 70 0 0 1 46.73 64a100 100 0 0 1 93.32-64zm0 20a80.07 80.07 0 0 0-77.64 60.58A50 50 0 0 0 70.05 180h140a50 50 0 0 0 7.64-99.4A80 80 0 0 0 140.05 20z"></path></g></svg></g></mask></svg> <defs><filter id="colors9792483039"><feColorMatrix type="matrix" values="0 0 0 0 0.99609375  0 0 0 0 0.99609375  0 0 0 0 0.99609375  0 0 0 1 0" class="icon-fecolormatrix"></feColorMatrix></filter> <filter id="colorsf8476478"><feColorMatrix type="matrix" values="0 0 0 0 0.99609375  0 0 0 0 0.99609375  0 0 0 0 0.99609375  0 0 0 1 0" class="icon-fecolormatrix"></feColorMatrix></filter> <filter id="colorsb9440463833"><feColorMatrix type="matrix" values="0 0 0 0 0  0 0 0 0 0  0 0 0 0 0  0 0 0 1 0" class="icon-fecolormatrix"></feColorMatrix></filter></defs><rect v-gra="id" width="67" height="67" transform="translate(-6, -6)" style="pointer-events:none;" fill="url(#n9RHGwkODDusBXR4AaTTx)"></rect></g> <g transform="translate(62,2.3331222534179688)"><g data-gra="path-name" fill-rule="" class="tp-name iconsvg-namesvg" transform="translate(0,0)"><g transform="scale(1)"><g><path d="M10.02-11.84L10.02-11.84 15.81-8.49Q15.39-7.77 14.09-8.04L14.09-8.04Q9.18-1.68 1.33 1.64L1.33 1.64 0.99 1.26Q3.47-1.07 5.92-4.59 8.38-8.11 10.02-11.84ZM25.78-11.12L25.78-11.12 26.13-11.39Q33.67-9.29 36.18-5.14L36.18-5.14Q37.67-2.67 36.71-0.84L36.71-0.84Q35.95 0.65 34.28 0.3L34.28 0.3Q33.59 0.19 32.91-0.27L32.91-0.27Q31.23-5.22 25.78-11.12ZM15.77-26.09L29.48-26.09 32.33-29.75Q35.57-27.31 37.48-25.63L37.48-25.63Q37.36-24.98 36.37-24.98L36.37-24.98 15.27-24.98Q10.85-15.58 10.66-15.23L10.66-15.23 18.09-15.23 18.09-22.2 24.11-21.63Q23.99-20.87 22.85-20.72L22.85-20.72 22.85-15.23 27.8-15.23 30.54-18.74Q33.63-16.42 35.5-14.74L35.5-14.74Q35.34-14.13 34.35-14.13L34.35-14.13 22.85-14.13 22.85-1.94Q22.85 0.65 21.69 1.87 20.53 3.08 16.8 3.39L16.8 3.39Q16.61 1.03 15.88 0.27L15.88 0.27Q14.97-0.84 12.57-1.26L12.57-1.26 12.57-1.75Q16.45-1.52 17.29-1.52L17.29-1.52Q18.09-1.52 18.09-2.13L18.09-2.13 18.09-14.13 10.36-14.13 8.91-12.64 4.49-15.46Q5.22-16.03 6.02-16.42L6.02-16.42Q7.58-19.16 10.21-24.98L10.21-24.98 1.87-24.98 1.56-26.09 10.7-26.09Q12.76-30.74 13.56-33.29L13.56-33.29 19.58-31.46Q19.2-30.58 17.86-30.77L17.86-30.77Q16.91-28.53 15.77-26.09L15.77-26.09ZM49.89-23.77L49.89-27.5 40.83-27.5 40.56-28.64 49.89-28.64 49.89-33.17 55.68-32.68Q55.61-31.84 54.31-31.65L54.31-31.65 54.31-28.64 62.31-28.64 62.31-33.17 68.21-32.72Q68.14-31.84 66.84-31.65L66.84-31.65 66.84-28.64 70-28.64 72.29-31.65Q74.88-29.55 76.4-28.11L76.4-28.11Q76.29-27.5 75.33-27.5L75.33-27.5 66.84-27.5 66.84-24.87Q66.84-24.68 66.35-24.47 65.85-24.26 64.96-24.11 64.06-23.96 63.07-23.96L63.07-23.96 62.31-23.96 62.31-27.5 54.31-27.5 54.31-24.68Q54.31-24.53 53.82-24.32 53.32-24.11 52.44-23.94 51.57-23.77 50.62-23.77L50.62-23.77 49.89-23.77ZM69.62-16.19L69.62-16.19 69.28-16.42Q69.7-17.82 70.23-20.83L70.23-20.83 47-20.83Q47.15-18.97 46.58-17.56 46.01-16.15 45.02-15.54L45.02-15.54Q44.1-14.89 42.96-15.14 41.82-15.39 41.48-16.45L41.48-16.45Q41.13-17.41 41.59-18.21 42.05-19 43-19.46L43-19.46Q44.07-20.15 44.83-21.58 45.59-23 45.47-24.53L45.47-24.53 46.01-24.57Q46.69-22.89 46.85-21.98L46.85-21.98 55.99-21.98 55.99-26.05 61.58-25.63Q61.47-24.83 60.44-24.68L60.44-24.68 60.44-21.98 69.96-21.98 72.25-24.26 76.25-20.45Q75.91-20.03 74.76-19.96L74.76-19.96Q72.4-17.67 69.62-16.19ZM48.25-15.62L47.91-16.72 62.96-16.72 65.09-19.39Q67.6-17.56 69.16-16.22L69.16-16.22Q69.05-15.62 68.1-15.62L68.1-15.62 48.25-15.62ZM74.38-6.51L74.8-6.51 74.92-1.71Q75.79-1.37 76.08-0.99 76.36-0.61 76.36 0.11L76.36 0.11Q76.36 1.03 75.71 1.58 75.07 2.13 73.32 2.44 71.56 2.74 68.48 2.74L68.48 2.74 64.63 2.74Q61.81 2.74 60.92 1.98 60.02 1.22 60.02-1.03L60.02-1.03 60.02-10.02 56.18-10.02Q55.49-4.23 51.78-1.03 48.06 2.17 40.33 3.5L40.33 3.5 40.22 3.01Q45.82 0.95 48.24-2.09 50.65-5.14 51.07-10.02L51.07-10.02 41.82-10.02 41.51-11.16 68.59-11.16 71.03-14.17Q73.73-12.15 75.37-10.66L75.37-10.66Q75.18-10.02 74.34-10.02L74.34-10.02 64.37-10.02 64.37-2.06Q64.37-1.6 64.59-1.47 64.82-1.33 65.66-1.33L65.66-1.33 68.94-1.33Q71.22-1.33 71.75-1.41L71.75-1.41Q72.44-1.45 72.71-1.87L72.71-1.87Q72.9-2.17 74.38-6.51L74.38-6.51ZM107.14-6.97L110.22-6.97 112.39-9.86Q114.94-7.88 116.47-6.47L116.47-6.47Q116.31-5.87 115.4-5.87L115.4-5.87 107.14-5.87 107.14 2.17Q107.1 2.36 106.68 2.65 106.26 2.93 105.33 3.22 104.39 3.5 103.33 3.5L103.33 3.5 102.45 3.5 102.45-5.87 94.03-5.87 93.73-6.97 102.45-6.97 102.45-13.48 96.32-13.48 96.01-14.63 102.45-14.63 102.45-21.02 96.28-21.02 95.98-22.17 102.45-22.17 102.45-28.64 96.66-28.64 96.74-28.6Q96.05-27.92 94.19-28.53L94.19-28.53Q92.78-28.07 90.61-27.5L90.61-27.5 90.61-20.68 91.37-20.68 93.35-23.46Q95.75-21.52 97.16-20.19L97.16-20.19Q97-19.58 96.09-19.58L96.09-19.58 90.61-19.58 90.61-16.64Q90.61-15.12 90.57-14.36L90.57-14.36Q91.71-14.59 96.51-15.69L96.51-15.69 96.62-15.2Q93.88-13.63 90.42-11.84L90.42-11.84Q90.07-8.65 89.14-6.09 88.21-3.54 85.83-0.9 83.45 1.75 79.75 3.58L79.75 3.58 79.41 3.24Q84.47-1.68 85.58-9.48L85.58-9.48Q85.05-9.25 84-8.74 82.95-8.23 82.42-8L82.42-8Q82.15-7.2 81.43-7.01L81.43-7.01 79.14-12.07Q79.83-12.19 85.92-13.37L85.92-13.37Q86-14.47 86-16.64L86-16.64 86-19.58 80.13-19.58 79.83-20.68 86-20.68 86-26.55Q82.65-25.97 79.41-25.67L79.41-25.67 79.26-26.13Q82.49-27.35 86.09-29.27 89.69-31.19 91.75-32.75L91.75-32.75 95.33-29.75 109.42-29.75 111.55-32.53Q113.92-30.62 115.36-29.25L115.36-29.25Q115.25-28.64 114.33-28.64L114.33-28.64 107.14-28.64 107.14-22.17 108.51-22.17 110.68-25.1Q113.19-23.08 114.71-21.63L114.71-21.63Q114.56-21.02 113.61-21.02L113.61-21.02 107.14-21.02 107.14-14.63 108.93-14.63 111.06-17.52Q113.5-15.5 114.98-14.13L114.98-14.13Q114.79-13.48 113.92-13.48L113.92-13.48 107.14-13.48 107.14-6.97ZM120.92-32.56L120.92-32.56 121.3-32.75Q126.79-31.84 128.31-29.02L128.31-29.02Q129.23-27.31 128.24-26.05L128.24-26.05Q127.28-24.79 125.65-25.4L125.65-25.4Q125.26-25.56 124.88-25.78L124.88-25.78Q124.01-28.83 120.92-32.56ZM131.63-8.23L131.63-8.23 131.85-7.85Q128.43-3.39 125.61-0.27L125.61-0.27Q125.26 1.14 124.2 1.83L124.2 1.83 121.11-3.01Q122.41-3.73 122.77-4.13 123.13-4.53 123.13-5.18L123.13-5.18 123.13-21.56 118.26-21.56 117.91-22.66 123.21-22.66 125.23-24.68 128.96-21.56Q128.58-21.02 127.32-20.83L127.32-20.83 127.32-5.87Q129.87-7.2 131.63-8.23ZM132.31-10.36L132.31-10.36 132.69-10.63Q138.14-9.67 139.51-6.86L139.51-6.86Q140.31-5.18 139.28-3.96L139.28-3.96Q138.25-2.74 136.61-3.39L136.61-3.39Q136.23-3.5 135.89-3.77L135.89-3.77Q135.28-6.67 132.31-10.36ZM147.93-12.68L148.65-12.68 150.86-15.62Q153.26-13.63 154.74-12.23L154.74-12.23Q154.63-11.58 153.75-11.58L153.75-11.58 147.93-11.58 147.93-1.94Q147.93 0.69 146.73 1.9 145.53 3.12 141.72 3.43L141.72 3.43Q141.45 1.07 140.73 0.27L140.73 0.27Q139.58-0.88 136.84-1.29L136.84-1.29 136.84-1.83Q141.57-1.52 142.48-1.52L142.48-1.52Q143.32-1.52 143.32-2.21L143.32-2.21 143.32-11.58 130.1-11.58 129.8-12.68 143.32-12.68 143.32-17.14 149.26-16.57Q149.14-15.73 147.93-15.58L147.93-15.58 147.93-12.68ZM143.28-19.12L147.93-19.12 150.44-22.36Q153.3-20.15 155.01-18.59L155.01-18.59Q154.86-17.98 153.94-17.98L153.94-17.98 129.04-17.98 128.73-19.12 138.63-19.12 138.63-25.14 131.09-25.14 130.75-26.28 138.63-26.28 138.63-33.13 144.54-32.64Q144.46-31.8 143.28-31.61L143.28-31.61 143.28-26.28 146.29-26.28 148.76-29.48Q151.54-27.31 153.26-25.78L153.26-25.78Q153.07-25.14 152.19-25.14L152.19-25.14 143.28-25.14 143.28-19.12ZM179.08-26.09L172.49-26.09 172.19-27.23 179.08-27.23 179.08-33.1 184.98-32.6Q184.87-31.69 183.54-31.5L183.54-31.5 183.54-27.23 186.32-27.23 188.56-30.47Q191.12-28.22 192.6-26.7L192.6-26.7Q192.45-26.09 191.5-26.09L191.5-26.09 183.54-26.09 183.54-20.03 187.54-20.03 189.93-23.46Q192.6-21.14 194.12-19.54L194.12-19.54Q193.97-18.93 193.06-18.93L193.06-18.93 170.36-18.93 170.05-20.03 179.08-20.03 179.08-26.09ZM161.56-23.42L161.56-23.42 163.58-23.42 163.58-28.34Q163.31-28.22 162.86-28.22L162.86-28.22Q162.36-25.94 161.56-23.42ZM173.6-16.87L173.6-16.87 173.71-16.45Q170.7-14.59 167.77-12.95L167.77-12.95 167.77 1.94Q167.77 2.32 166.63 2.89 165.48 3.47 164.38 3.47L164.38 3.47 163.58 3.47 163.58-10.66Q163.24-10.51 162.04-9.85 160.84-9.18 160.11-8.84L160.11-8.84Q159.81-8.07 159.08-7.81L159.08-7.81 156.95-13.06Q158.25-13.29 163.58-14.47L163.58-14.47 163.58-22.32 161.18-22.32Q159.77-18.51 157.83-16.15L157.83-16.15 157.26-16.42Q158.97-22.2 159.08-30.28L159.08-30.28 163.58-29.29 163.58-33.13 169.18-32.56Q169.06-31.65 167.77-31.46L167.77-31.46 167.77-23.42 167.92-23.42 170.13-26.77Q172.57-24.45 173.94-22.93L173.94-22.93Q173.79-22.32 172.87-22.32L172.87-22.32 167.77-22.32 167.77-15.46Q168.34-15.62 170.42-16.11 172.49-16.61 173.6-16.87ZM172.3-11.46L172.3-11.46 172.61-11.69Q178.09-10.66 179.46-7.81L179.46-7.81Q180.26-6.09 179.19-4.84L179.19-4.84Q178.13-3.62 176.45-4.3L176.45-4.3Q176.07-4.46 175.65-4.76L175.65-4.76Q175.08-7.92 172.3-11.46ZM188.18-13.63L188.64-13.63 190.62-16.72Q192.98-14.59 194.28-13.14L194.28-13.14Q194.12-12.53 193.21-12.53L193.21-12.53 188.18-12.53 188.18-1.83Q188.18-0.11 187.78 0.86 187.38 1.83 185.99 2.53 184.6 3.24 181.97 3.47L181.97 3.47Q181.67 1.14 180.79 0.38L180.79 0.38Q179.5-0.72 176.68-1.14L176.68-1.14 176.68-1.68Q181.9-1.33 182.85-1.33L182.85-1.33Q183.73-1.33 183.73-2.06L183.73-2.06 183.73-12.53 170.59-12.53 170.28-13.63 183.73-13.63 183.73-18.59 189.59-18.09Q189.44-17.25 188.18-17.1L188.18-17.1 188.18-13.63Z" transform="translate(-0.9900000095367432, 33.290000915527344)"></path></g> <!----> <!----> <!----> <!----> <!----> <!----> <!----></g></g> <g data-gra="path-slogan" fill-rule="" class="tp-slogan iconsvg-slogansvg" fill="#0a0619" transform="translate(5,44.87000274658203)"><rect x="0" height="1" y="3.2300000190734863" width="39.8699951171875"></rect> <rect height="1" y="3.2300000190734863" width="31.8699951171875" x="151.4199981689453"></rect> <g transform="translate(42.8699951171875,0)"><g transform="scale(1)"><path d="M3.67 0L0.78 0L0.78-7.15L3.71-7.15Q6.60-6.99 6.72-3.67L6.72-3.67Q6.56-0.08 3.67 0L3.67 0ZM3.55-6.37L1.76-6.37L1.76-0.82L3.63-0.82Q5.66-0.94 5.74-3.59L5.74-3.59Q5.70-6.29 3.55-6.37L3.55-6.37ZM13.59-3.55L13.59-3.55Q13.44-6.37 11.09-6.52L11.09-6.52Q8.71-6.41 8.59-3.55L8.59-3.55Q8.71-0.78 11.09-0.66L11.09-0.66Q13.44-0.82 13.59-3.55ZM14.57-3.55L14.57-3.55Q14.34 0 11.09 0.12L11.09 0.12Q7.81 0 7.58-3.55L7.58-3.55Q7.77-7.27 11.09-7.34L11.09-7.34Q14.34-7.23 14.57-3.55ZM16.88-7.15L20.47-1.37L20.47-7.15L21.41-7.15L21.41 0L20.31 0L16.68-5.78L16.64-5.78L16.64 0L15.70 0L15.70-7.15L16.88-7.15ZM28.24-3.01L26.05-3.01L26.05-3.83L29.18-3.83L29.18 0L28.55 0L28.32-0.90Q27.50 0.08 25.98 0.12L25.98 0.12Q24.53 0.12 23.75-0.63L23.75-0.63Q22.58-1.72 22.62-3.63L22.62-3.63Q22.89-7.19 26.02-7.34L26.02-7.34Q28.67-7.19 29.06-5L29.06-5L28.13-5Q27.73-6.48 25.98-6.52L25.98-6.52Q23.75-6.37 23.63-3.59L23.63-3.59Q23.63-0.63 26.02-0.63L26.02-0.63Q26.88-0.63 27.50-1.09L27.50-1.09Q28.28-1.72 28.24-3.01L28.24-3.01ZM36.02-3.01L33.83-3.01L33.83-3.83L36.95-3.83L36.95 0L36.33 0L36.09-0.90Q35.27 0.08 33.75 0.12L33.75 0.12Q32.30 0.12 31.52-0.63L31.52-0.63Q30.35-1.72 30.39-3.63L30.39-3.63Q30.66-7.19 33.79-7.34L33.79-7.34Q36.45-7.19 36.84-5L36.84-5L35.90-5Q35.51-6.48 33.75-6.52L33.75-6.52Q31.52-6.37 31.41-3.59L31.41-3.59Q31.41-0.63 33.79-0.63L33.79-0.63Q34.65-0.63 35.27-1.09L35.27-1.09Q36.05-1.72 36.02-3.01L36.02-3.01ZM43.16-2.66L43.16-7.15L44.14-7.15L44.14-2.54Q44.02 0.04 41.21 0.12L41.21 0.12Q38.59 0.04 38.48-2.38L38.48-2.38L38.48-7.15L39.45-7.15L39.45-2.66Q39.49-0.70 41.25-0.66L41.25-0.66Q43.16-0.70 43.16-2.66L43.16-2.66ZM50.35 0L49.65-2.07L46.76-2.07L46.02 0L45.04 0L47.73-7.15L48.83-7.15L51.41 0L50.35 0ZM48.20-6.09L47.07-2.93L49.30-2.93L48.24-6.09L48.20-6.09ZM53.44-7.15L57.03-1.37L57.03-7.15L57.97-7.15L57.97 0L56.88 0L53.24-5.78L53.20-5.78L53.20 0L52.27 0L52.27-7.15L53.44-7.15ZM64.92-6.37L63.20-6.37L63.20-4.14L64.92-4.14Q66.45-4.10 66.41-5.31L66.41-5.31Q66.41-6.37 64.92-6.37L64.92-6.37ZM65.31 0L62.23 0L62.23-7.15L65.39-7.15Q67.30-7.07 67.38-5.35L67.38-5.35Q67.38-4.30 66.45-3.87L66.45-3.87Q67.77-3.40 67.77-2.11L67.77-2.11Q67.66-0.08 65.31 0L65.31 0ZM65.08-3.32L63.20-3.32L63.20-0.82L65.27-0.82Q66.76-0.86 66.80-2.11L66.80-2.11Q66.80-3.32 65.08-3.32L65.08-3.32ZM73.59 0L72.89-2.07L70-2.07L69.26 0L68.28 0L70.98-7.15L72.07-7.15L74.65 0L73.59 0ZM71.45-6.09L70.31-2.93L72.54-2.93L71.48-6.09L71.45-6.09ZM75.66-7.15L76.64-7.15L76.64 0L75.66 0L75.66-7.15ZM83.52-5.08L83.52-5.08L82.62-5.08Q82.54-6.45 80.82-6.52L80.82-6.52Q79.22-6.48 79.22-5.27L79.22-5.27Q79.22-4.49 80.08-4.38L80.08-4.38L82.11-3.91Q83.71-3.52 83.71-1.95L83.71-1.95Q83.67 0.04 80.90 0.12L80.90 0.12Q79.38 0.12 78.75-0.51L78.75-0.51Q77.97-1.09 78.01-2.30L78.01-2.30L78.95-2.30Q78.98-0.66 80.90-0.63L80.90-0.63Q82.77-0.66 82.81-1.84L82.81-1.84Q82.97-2.81 81.25-3.13L81.25-3.13L79.77-3.44Q78.24-3.87 78.24-5.16L78.24-5.16Q78.36-7.27 80.74-7.34L80.74-7.34Q83.44-7.34 83.52-5.08ZM85.90-4.22L89.65-4.22L89.65-7.15L90.63-7.15L90.63 0L89.65 0L89.65-3.32L85.90-3.32L85.90 0L84.92 0L84.92-7.15L85.90-7.15L85.90-4.22ZM92.27-7.15L93.24-7.15L93.24 0L92.27 0L92.27-7.15ZM96.72-6.33L94.30-6.33L94.30-7.15L100.08-7.15L100.08-6.33L97.66-6.33L97.66 0L96.72 0L96.72-6.33ZM102.03-0.86L106.33-0.86L106.33 0L101.05 0L101.05-7.15L106.25-7.15L106.25-6.33L102.03-6.33L102.03-4.10L105.94-4.10L105.94-3.24L102.03-3.24L102.03-0.86Z" transform="translate(-0.78125, 7.34375)"></path></g></g></g></g></g><defs v-gra="od"></defs><defs v-gra="id"><filter id="6d73531c-6cb6-4a01-ba5f-f0cc33c24e49" filterUnits="userSpaceOnUse"><feColorMatrix type="matrix" values="0 0 0 0 0.99609375  0 0 0 0 0.99609375  0 0 0 0 0.99609375  0 0 0 1 0"></feColorMatrix></filter><linearGradient x1="0" y1="1" x2="0" y2="0" id="n9RHGwkODDusBXR4AaTTx"><stop offset="0%" stop-color="#ff51f9"></stop><stop offset="50%" stop-color="#a348ff"></stop><stop offset="100%" stop-color="#3978ff"></stop></linearGradient><filter id="42443b3f1de60f6b6fd3b6a9844b4764" filterUnits="objectBoundingBox"><feColorMatrix type="matrix" values="0 0 0 0 0.99609375  0 0 0 0 0.99609375  0 0 0 0 0.99609375  0 0 0 1 0"></feColorMatrix></filter></defs><mask v-gra="im" id="be56f4f6-5a42-4c70-a351-55e8e86dc02d"><g fill="#FFFFFF" class="iconsvg-imagesvg icon_container" filter="url(#6d73531c-6cb6-4a01-ba5f-f0cc33c24e49)"><rect fill="#0a0619" fill-opacity="0" stroke-width="2" x="0" y="0" width="55" height="55" class="image-rect"></rect> <svg viewBox="0 0 60 60" x="0" y="0" width="55" height="55" class="image-svg-svg bn" style="overflow: visible;"><g hollow-target="iconBnFill" mask="url(#5b317657-a444-4794-bd0c-ab3d6cfed2cf)"><g><svg fill="#000000" xmlns="http://www.w3.org/2000/svg" xmlns:xlink="http://www.w3.org/1999/xlink" xmlns:sketch="http://www.bohemiancoding.com/sketch/ns" viewBox="0 0 60 60" version="1.1" x="0" y="0" style="overflow: visible;" width="60" height="60" filtersec="colorsf8476478"><g transform="scale(1, 1) skewX(0)"><title>96 - Rounded (Solid)</title><desc>Created with Sketch.</desc><g fill-rule="evenodd"><g fill="#000000"><path d="M49.001,0 L10.999,0 C4.934,0 0,4.934 0,10.999 L0,49.001 C0,55.066 4.934,60 10.999,60 L49.001,60 C55.065,60 60,55.066 60,49.001 L60,10.999 C60,4.934 55.065,0 49.001,0"></path></g></g></g><defs><filter id="aVSrXQy3Z3S9pF1xo-wOq"><feColorMatrix type="matrix" values="0 0 0 0 0.99609375  0 0 0 0 0.99609375  0 0 0 0 0.99609375  0 0 0 1 0"></feColorMatrix></filter></defs></svg></g> <g><svg xmlns="http://www.w3.org/2000/svg" viewBox="0 0 280.07 200" width="40" height="40" x="10" y="10" class="image-svg-icon"><g><path d="M140.05 0a100 100 0 0 1 93.32 64 70 70 0 0 1-23.32 136h-140A70 70 0 0 1 46.73 64a100 100 0 0 1 93.32-64zm0 20a80.07 80.07 0 0 0-77.64 60.58A50 50 0 0 0 70.05 180h140a50 50 0 0 0 7.64-99.4A80 80 0 0 0 140.05 20z"></path></g></svg></g></g><mask id="5b317657-a444-4794-bd0c-ab3d6cfed2cf"><g fill="white"><svg xmlns="http://www.w3.org/2000/svg" xmlns:xlink="http://www.w3.org/1999/xlink" xmlns:sketch="http://www.bohemiancoding.com/sketch/ns" viewBox="0 0 60 60" version="1.1" x="0" y="0" style="overflow: visible;" width="60" height="60" filtersec="colorsf8476478"><g transform="scale(1, 1) skewX(0)"><title>96 - Rounded (Solid)</title><desc>Created with Sketch.</desc><g fill-rule="evenodd"><g><path d="M49.001,0 L10.999,0 C4.934,0 0,4.934 0,10.999 L0,49.001 C0,55.066 4.934,60 10.999,60 L49.001,60 C55.065,60 60,55.066 60,49.001 L60,10.999 C60,4.934 55.065,0 49.001,0"></path></g></g></g><defs></defs></svg></g> <g fill="black"><svg xmlns="http://www.w3.org/2000/svg" viewBox="0 0 280.07 200" width="40" height="40" x="10" y="10" class="image-svg-icon"><g><path d="M140.05 0a100 100 0 0 1 93.32 64 70 70 0 0 1-23.32 136h-140A70 70 0 0 1 46.73 64a100 100 0 0 1 93.32-64zm0 20a80.07 80.07 0 0 0-77.64 60.58A50 50 0 0 0 70.05 180h140a50 50 0 0 0 7.64-99.4A80 80 0 0 0 140.05 20z"></path></g></svg></g></mask></svg> <defs><filter id="colors9792483039"><feColorMatrix type="matrix" values="0 0 0 0 0.99609375  0 0 0 0 0.99609375  0 0 0 0 0.99609375  0 0 0 1 0" class="icon-fecolormatrix"></feColorMatrix></filter> <filter id="colorsf8476478"><feColorMatrix type="matrix" values="0 0 0 0 0.99609375  0 0 0 0 0.99609375  0 0 0 0 0.99609375  0 0 0 1 0" class="icon-fecolormatrix"></feColorMatrix></filter> <filter id="colorsb9440463833"><feColorMatrix type="matrix" values="0 0 0 0 0  0 0 0 0 0  0 0 0 0 0  0 0 0 1 0" class="icon-fecolormatrix"></feColorMatrix></filter></defs></g></mask></svg>